<?xml version="1.0" encoding="UTF-8"?>
<svg id="Layer_1" xmlns="http://www.w3.org/2000/svg" version="1.1" viewBox="0 0 1024 1024">
  <defs>
    <style>
      .st0 {
        fill: #b58921;
        stroke: #b58921;
        stroke-width: 18;
        stroke-linejoin: round;
        stroke-linecap: round;
        paint-order: stroke fill;
      }
    </style>
  </defs>

  <path class="st0" d="M310,673v-384l146,161h184.4s64.1-3.4,73.1,63.1c.3,2,.4,4.1.4,6.2v91.1s2.5,67.9-71.5,78.8c-3.7.5-7.4.8-11.2.8h-85.4s0,23,0,23h89.7s92.7,2.9,102.9-97.9c.3-2.7.4-5.4.4-8.1v-90.7s-1.8-56.4-52-79.7c0,0,52-27.3,52-88.6,0,0,2.2-73.7-73.9-90.5-4.4-1-8.9-1.4-13.4-1.4h-167.8v143h25v-120h140.4c1.8,0,3.6.2,5.3.5,12.6,2.3,58.9,14.4,60.2,69.8,0,0,2.4,69.4-74.9,76.8h-171l-156-170.1h-28v417s24.9,0,25,0Z"/>
  <path class="st0" d="M484,477v202.9s0,1.6,0,4.4c0,.2,0,.4,0,.6,0,44.8-32.2,81.1-71.9,81.1s-.7,0-1,0c-.5,0-.9.1-1.4.1,0,0-45.2,1.1-64.7-45.1h-25s19.8,68.6,89.6,68c0,0,93.7,1.9,98.4-110v-202s-24.1.1-24,0Z"/>
</svg>
